<?xml version="1.0" encoding="utf-8"?>
<!-- Generator: Adobe Illustrator 18.1.1, SVG Export Plug-In . SVG Version: 6.00 Build 0)  -->
<svg version="1.1" id="github" xmlns="http://www.w3.org/2000/svg" xmlns:xlink="http://www.w3.org/1999/xlink" x="0px" y="0px"
	 viewBox="0 0 500 500" enable-background="new 0 0 500 500" xml:space="preserve">
<circle fill="#434868" cx="250" cy="250" r="240"/>
<path fill="#F7F7F7" d="M250,127.5c-67.7,0-122.5,54.8-122.5,122.5S182.3,372.5,250,372.5S372.5,317.7,372.5,250
	S317.7,127.5,250,127.5z M322.7,322.7c-9.5,9.5-20.5,16.9-32.7,22.1c-3.1,1.3-6.3,2.5-9.5,3.5v-18.4c0-9.6-3.3-16.7-9.9-21.3
	c4.1-0.4,8-1,11.4-1.7c3.5-0.7,7.1-1.8,11-3.1c3.9-1.4,7.3-3,10.4-4.8c3.1-1.9,6-4.3,8.9-7.3c2.8-3,5.2-6.4,7.1-10.2
	s3.4-8.3,4.5-13.6c1.1-5.3,1.7-11.1,1.7-17.5c0-12.4-4-22.9-12.1-31.6c3.7-9.6,3.3-20-1.2-31.2l-3-0.4c-2.1-0.2-5.8,0.6-11.2,2.6
	c-5.4,2-11.4,5.3-18.1,9.8c-9.5-2.6-19.3-3.9-29.6-3.9c-10.3,0-20.1,1.3-29.4,3.9c-4.2-2.9-8.2-5.2-12-7.1c-3.8-1.9-6.8-3.2-9.1-3.8
	c-2.3-0.7-4.4-1.1-6.3-1.3c-2-0.2-3.2-0.2-3.8-0.1s-1,0.2-1.2,0.2c-4.5,11.3-4.9,21.7-1.2,31.2c-8.1,8.7-12.1,19.2-12.1,31.6
	c0,6.4,0.6,12.2,1.7,17.5c1.1,5.3,2.6,9.9,4.5,13.6s4.3,7.2,7.1,10.2c2.8,3,5.8,5.4,8.9,7.3c3.1,1.9,6.5,3.5,10.4,4.8
	c3.9,1.4,7.5,2.4,11,3.1c3.5,0.7,7.3,1.3,11.4,1.7c-6.5,4.5-9.8,11.6-9.8,21.3v18.7c-3.6-1.1-7.2-2.3-10.7-3.8
	c-12.2-5.2-23.3-12.6-32.7-22.1s-16.9-20.5-22.1-32.7c-5.4-12.7-8.1-26.1-8.1-40c0-13.9,2.7-27.4,8.1-40
	c5.2-12.2,12.6-23.3,22.1-32.7s20.5-16.9,32.7-22.1c12.7-5.4,26.1-8.1,40-8.1c13.9,0,27.4,2.7,40,8.1c12.2,5.2,23.3,12.6,32.7,22.1
	s16.9,20.5,22.1,32.7c5.4,12.7,8.1,26.1,8.1,40s-2.7,27.4-8.1,40C339.6,302.3,332.2,313.3,322.7,322.7L322.7,322.7z"/>
</svg>
