<?xml version="1.0" encoding="utf-8"?>
<!-- Generator: Adobe Illustrator 18.1.1, SVG Export Plug-In . SVG Version: 6.00 Build 0)  -->
<svg version="1.1" id="linkedin" xmlns="http://www.w3.org/2000/svg" xmlns:xlink="http://www.w3.org/1999/xlink" x="0px" y="0px"
	 viewBox="0 0 500 500" enable-background="new 0 0 500 500" xml:space="preserve">
<circle fill="#434868" cx="250" cy="250" r="240"/>
<path fill="#F7F7F7" d="M331.3,127.5H168.7c-22.6,0-41.2,18.5-41.2,41.2v162.7c0,22.6,18.5,41.2,41.2,41.2h162.7
	c22.6,0,41.2-18.5,41.2-41.2V168.7C372.5,146,354,127.5,331.3,127.5z M219.4,326.6h-30.6V219.4h30.6V326.6z M204.1,204.1
	c-8.5,0-15.3-6.9-15.3-15.3s6.9-15.3,15.3-15.3s15.3,6.9,15.3,15.3S212.5,204.1,204.1,204.1z M326.6,326.6h-30.6v-61.2
	c0-8.5-6.9-15.3-15.3-15.3s-15.3,6.9-15.3,15.3v61.2h-30.6V219.4h30.6v19c6.3-8.7,16-19,26.8-19c19,0,34.5,17.1,34.5,38.3
	L326.6,326.6L326.6,326.6z"/>
</svg>
